<?xml version="1.0" encoding="UTF-8" standalone="no"?>
<!-- Created with Inkscape (http://www.inkscape.org/) -->

<svg
   width="399.99997"
   height="125"
   viewBox="0 0 105.83333 33.072916"
   version="1.1"
   id="svg5"
   inkscape:version="1.1.2 (0a00cf5339, 2022-02-04)"
   sodipodi:docname="astra.svg"
   xmlns:inkscape="http://www.inkscape.org/namespaces/inkscape"
   xmlns:sodipodi="http://sodipodi.sourceforge.net/DTD/sodipodi-0.dtd"
   xmlns="http://www.w3.org/2000/svg"
   xmlns:svg="http://www.w3.org/2000/svg">
  <sodipodi:namedview
     id="namedview7"
     pagecolor="#ffffff"
     bordercolor="#666666"
     borderopacity="1.0"
     inkscape:pageshadow="2"
     inkscape:pageopacity="0.0"
     inkscape:pagecheckerboard="0"
     inkscape:document-units="mm"
     showgrid="false"
     inkscape:zoom="1.5823796"
     inkscape:cx="166.83734"
     inkscape:cy="86.894447"
     inkscape:window-width="1074"
     inkscape:window-height="1149"
     inkscape:window-x="0"
     inkscape:window-y="22"
     inkscape:window-maximized="0"
     inkscape:current-layer="layer1"
     fit-margin-top="0"
     fit-margin-left="0"
     fit-margin-right="0"
     fit-margin-bottom="0"
     units="px" />
  <defs
     id="defs2" />
  <g
     inkscape:label="Capa 1"
     inkscape:groupmode="layer"
     id="layer1"
     transform="translate(-7.5643688,-6.3162035)">
    <g
       id="g932"
       transform="matrix(1.0586703,0,0,1.058687,-26.35384,-57.949439)"
       style="fill:#e7ebfc;fill-opacity:1">
      <path
         style="fill:#e7ebfc;fill-opacity:1;stroke-width:0.0846667"
         d="m 120.15334,84.833479 c -0.86749,0.02911 -1.25459,0.0069 -1.60597,-0.0921 -0.25462,-0.07175 -0.57834,-0.197847 -0.71937,-0.280212 -0.14103,-0.08237 -0.34227,-0.277153 -0.4472,-0.432864 -0.14158,-0.210084 -0.19078,-0.405455 -0.19072,-0.757422 5e-5,-0.347732 0.0649,-0.609884 0.2431,-0.982313 0.13366,-0.2794 0.43397,-0.72419 0.66734,-0.988424 0.23338,-0.264233 0.69879,-0.727634 1.03426,-1.029778 0.33548,-0.302146 1.03527,-0.853783 1.55509,-1.225861 0.51982,-0.372078 1.61189,-1.084273 2.4268,-1.582656 0.81492,-0.498383 1.95114,-1.197405 2.52492,-1.553382 0.5738,-0.355978 1.34532,-0.885452 1.7145,-1.176609 0.5042,-0.397634 0.67125,-0.579819 0.67125,-0.732063 0,-0.126627 -0.11412,-0.302889 -0.30413,-0.469715 -0.16727,-0.146866 -0.80544,-0.508343 -1.41817,-0.803284 -0.61271,-0.294941 -1.79983,-0.829918 -2.63803,-1.188838 -0.8382,-0.358921 -2.41466,-1.012555 -3.50325,-1.452521 -1.08858,-0.439967 -1.99725,-0.781926 -2.01926,-0.75991 -0.022,0.02202 0.007,0.185457 0.0648,0.363202 0.0576,0.177745 0.23132,0.576308 0.38598,0.885696 0.15465,0.309389 0.58357,1.014239 0.95315,1.566334 0.36958,0.552095 0.99067,1.384809 1.38021,1.850476 0.38952,0.465667 0.8931,0.970492 1.11905,1.121833 0.22595,0.151342 0.5037,0.275167 0.61723,0.275167 0.15822,0 0.23778,-0.07415 0.3407,-0.3175 0.1185,-0.280182 0.12303,-0.500831 0.0385,-1.877305 -0.0526,-0.857892 -0.0834,-1.572177 -0.0682,-1.587297 0.0151,-0.01512 0.52171,0.187312 1.12574,0.449851 l 1.09827,0.477343 -0.0712,0.601954 c -0.0392,0.331075 -0.14252,0.952496 -0.22967,1.380937 -0.0877,0.431205 -0.2658,0.976345 -0.39889,1.221055 -0.13224,0.243139 -0.34087,0.515912 -0.46361,0.60616 -0.12273,0.09025 -0.39942,0.183956 -0.61484,0.208237 -0.3245,0.03658 -0.48953,-0.0033 -0.96217,-0.232595 -0.43203,-0.209576 -0.7658,-0.474283 -1.37519,-1.090625 -0.44259,-0.447635 -1.13766,-1.257195 -1.54462,-1.799022 -0.40696,-0.541827 -0.97216,-1.354668 -1.25603,-1.806313 -0.28387,-0.451645 -0.65201,-1.107303 -0.81808,-1.45702 -0.16608,-0.349717 -0.31939,-0.817196 -0.34069,-1.038842 -0.0219,-0.227585 0.005,-0.485192 0.0624,-0.59184 0.0556,-0.103866 0.23012,-0.242771 0.38787,-0.308679 0.15773,-0.06591 0.43675,-0.119832 0.62002,-0.119832 0.18328,0 0.91099,0.09754 1.61716,0.216761 0.70616,0.119219 1.90045,0.368683 2.65398,0.554363 0.75354,0.185682 1.9326,0.508529 2.62012,0.717438 0.68754,0.208909 1.90674,0.610978 2.70934,0.893486 0.8026,0.282508 1.80218,0.688968 2.22128,0.903244 0.52308,0.267442 0.92524,0.551655 1.28267,0.906489 0.3525,0.349936 0.55062,0.624726 0.61337,0.850725 0.051,0.183605 0.0929,0.467177 0.0931,0.63016 0,0.162984 -0.11522,0.540761 -0.25656,0.839505 -0.17375,0.367292 -0.44165,0.724605 -0.82737,1.103492 -0.34822,0.342063 -1.24573,1.00947 -2.30413,1.713399 -0.95355,0.634194 -2.67253,1.761119 -3.81996,2.504278 -1.14742,0.743159 -2.37784,1.570679 -2.73427,1.838934 -0.35643,0.268254 -0.63111,0.504669 -0.61042,0.525366 0.0207,0.0207 1.35679,-0.04894 2.96911,-0.154741 1.61231,-0.105804 2.97575,-0.219737 3.02986,-0.253183 0.0729,-0.04503 0.068,-0.09739 -0.0186,-0.201786 -0.0643,-0.07754 -0.60482,-0.46592 -1.20105,-0.863073 -0.59623,-0.397154 -1.08406,-0.733561 -1.08406,-0.747572 0,-0.01401 0.1316,-0.106806 0.29244,-0.206211 l 0.29244,-0.180737 1.37973,0.781136 c 0.75885,0.429625 1.5226,0.922466 1.69723,1.095204 0.17462,0.172737 0.3175,0.392957 0.3175,0.489378 0,0.09642 -0.0442,0.272286 -0.0982,0.390812 -0.054,0.118526 -0.276,0.3296 -0.49332,0.469053 -0.21731,0.139454 -0.84941,0.402712 -1.40465,0.585018 -0.55523,0.182306 -1.61911,0.467198 -2.36418,0.633093 -0.74506,0.165895 -1.83091,0.380953 -2.413,0.477908 -0.58208,0.09695 -1.57268,0.193542 -2.20133,0.214639 z m -75.014661,-0.06052 c -0.162984,-0.0041 -0.524934,-0.04001 -0.804334,-0.07989 -0.2794,-0.03989 -0.67945,-0.136377 -0.889,-0.21442 -0.20955,-0.07804 -0.540002,-0.250132 -0.734338,-0.382419 -0.194336,-0.132286 -0.470561,-0.382732 -0.613833,-0.556546 -0.143272,-0.173814 -0.260495,-0.363768 -0.260495,-0.422121 0,-0.05835 0.08573,-0.124858 0.1905,-0.14779 0.104775,-0.02293 0.410666,-0.07972 0.679759,-0.126188 l 0.48926,-0.08449 0.320958,0.320959 c 0.203091,0.203091 0.474261,0.365436 0.738407,0.442073 0.229597,0.06661 0.728651,0.118345 1.109008,0.114958 0.558087,-0.005 0.76859,-0.04582 1.090678,-0.211667 0.2526,-0.130065 0.457177,-0.313808 0.557273,-0.500521 0.08699,-0.162257 0.158014,-0.409907 0.15784,-0.550333 -1.69e-4,-0.140427 -0.075,-0.377808 -0.16628,-0.527514 -0.09241,-0.151553 -0.345566,-0.36319 -0.571185,-0.4775 -0.22287,-0.112918 -0.967881,-0.342985 -1.65558,-0.511258 -0.687698,-0.168273 -1.426644,-0.388815 -1.642101,-0.490091 -0.215458,-0.101278 -0.51859,-0.310989 -0.673629,-0.466027 -0.178326,-0.178326 -0.332425,-0.455733 -0.41945,-0.755091 -0.09386,-0.322852 -0.118889,-0.598386 -0.07879,-0.867189 0.03233,-0.216691 0.108599,-0.513601 0.169493,-0.6598 0.06089,-0.146199 0.247318,-0.41702 0.414276,-0.601824 0.169568,-0.18769 0.521849,-0.433967 0.798089,-0.557936 0.27199,-0.122062 0.776212,-0.261881 1.120493,-0.310709 0.344281,-0.04883 0.798468,-0.06609 1.009305,-0.03835 0.210837,0.02773 0.644931,0.126486 0.964656,0.21945 0.499932,0.145363 0.658371,0.244209 1.131707,0.70605 0.302714,0.295363 0.526675,0.575394 0.497691,0.622292 -0.02898,0.0469 -0.322121,0.190973 -0.651415,0.320167 L 46.818926,78.214132 46.605482,77.9414 c -0.117396,-0.150003 -0.409727,-0.373326 -0.649626,-0.496274 -0.333198,-0.170762 -0.566115,-0.224898 -0.986514,-0.229289 -0.389179,-0.0041 -0.649177,0.04362 -0.887882,0.162831 -0.185653,0.09272 -0.423778,0.298039 -0.529167,0.456266 -0.105389,0.158229 -0.191617,0.379196 -0.191617,0.491038 0,0.111843 0.05341,0.306643 0.118699,0.432891 0.06529,0.126246 0.272087,0.315747 0.459559,0.421112 0.187471,0.105366 0.924632,0.338147 1.638133,0.517292 0.713501,0.179146 1.487775,0.415469 1.720609,0.525163 0.232833,0.109694 0.582401,0.358419 0.776819,0.552721 0.202163,0.202044 0.392245,0.492867 0.444027,0.679353 0.0498,0.179342 0.09076,0.500264 0.09101,0.71316 2.54e-4,0.212896 -0.05874,0.56088 -0.131123,0.773296 -0.07238,0.212416 -0.259981,0.536201 -0.416897,0.719523 -0.156916,0.183321 -0.519419,0.458094 -0.805561,0.610606 -0.310972,0.165746 -0.781876,0.32395 -1.170603,0.393273 -0.357688,0.06379 -0.783693,0.11266 -0.946676,0.108607 z m 16.134615,0.0065 c -0.09622,-0.0037 -0.409897,-0.05781 -0.697055,-0.120242 -0.287158,-0.06243 -0.611008,-0.160165 -0.719667,-0.217186 -0.108658,-0.05702 -0.338418,-0.214066 -0.510577,-0.348988 -0.172159,-0.134922 -0.414266,-0.45226 -0.538016,-0.705195 -0.161951,-0.331017 -0.226034,-0.59692 -0.228692,-0.948936 -0.0025,-0.32478 0.05929,-0.634617 0.18381,-0.922401 0.103127,-0.23834 0.308796,-0.550023 0.457042,-0.69263 0.148246,-0.142607 0.460039,-0.354001 0.692872,-0.469766 0.232833,-0.115766 0.651933,-0.26912 0.931333,-0.340787 0.2794,-0.07167 0.8509,-0.168184 1.27,-0.214483 0.4191,-0.0463 1.0227,-0.108545 1.341332,-0.138327 l 0.579332,-0.05415 -0.05845,-0.606255 c -0.03215,-0.333441 -0.126119,-0.762167 -0.208827,-0.952725 -0.08271,-0.190557 -0.265074,-0.428139 -0.405259,-0.52796 -0.140186,-0.09982 -0.452996,-0.22398 -0.695135,-0.27591 -0.245112,-0.05257 -0.614855,-0.06823 -0.834174,-0.03534 -0.216657,0.03249 -0.489675,0.108915 -0.606706,0.169833 -0.117029,0.06092 -0.296218,0.200126 -0.398195,0.309349 -0.101979,0.109224 -0.216279,0.280891 -0.254,0.381484 l -0.06859,0.182897 -0.613834,-0.25826 c -0.352638,-0.148367 -0.613833,-0.309428 -0.613833,-0.378508 0,-0.06614 0.192337,-0.323616 0.427415,-0.572176 0.24554,-0.259623 0.599556,-0.525981 0.831956,-0.625958 0.222497,-0.09571 0.663149,-0.215341 0.979226,-0.265834 0.399501,-0.06382 0.762669,-0.06566 1.191363,-0.006 0.339174,0.04717 0.833724,0.166979 1.099003,0.266233 0.282949,0.105864 0.63176,0.325453 0.843836,0.531225 0.232684,0.225767 0.430527,0.531797 0.555178,0.858766 0.183004,0.480036 0.196969,0.668791 0.253671,3.429 0.03721,1.811248 0.09587,3.009458 0.154416,3.153833 l 0.09441,0.232834 H 64.95966 64.210833 l -0.05248,-0.3175 c -0.02886,-0.174625 -0.0529,-0.422275 -0.05341,-0.550334 -5.08e-4,-0.128058 -0.02391,-0.232833 -0.05199,-0.232833 -0.02808,0 -0.236488,0.166716 -0.463123,0.37048 -0.226635,0.203765 -0.577203,0.448105 -0.77904,0.54298 -0.201837,0.09488 -0.59098,0.213909 -0.86476,0.26452 -0.273781,0.05061 -0.576511,0.08899 -0.672734,0.08529 z m 0.629384,-1.23506 c 0.256116,-0.02412 0.646919,-0.121339 0.868449,-0.216052 0.221531,-0.09471 0.521572,-0.307496 0.666758,-0.472855 0.145186,-0.165358 0.321023,-0.436771 0.390747,-0.603141 0.06972,-0.16637 0.146726,-0.619986 0.171115,-1.008035 l 0.04434,-0.705543 -0.414539,0.06099 c -0.227998,0.03354 -0.837234,0.146267 -1.353858,0.250498 -0.516625,0.104231 -1.126225,0.282584 -1.354666,0.396339 -0.228443,0.113756 -0.501075,0.333686 -0.60585,0.488734 -0.118507,0.175368 -0.1905,0.409383 -0.1905,0.619224 0,0.188578 0.07403,0.457102 0.167889,0.608969 0.09234,0.149408 0.311414,0.333084 0.486833,0.40817 0.175419,0.07509 0.395144,0.154528 0.488278,0.176537 0.09313,0.02201 0.378883,0.02029 0.635,-0.0038 z m 16.894377,1.23474 c -0.281258,-0.0039 -0.730069,-0.06006 -0.997357,-0.124843 -0.267288,-0.06478 -0.640479,-0.19661 -0.829315,-0.292947 -0.188835,-0.09634 -0.491338,-0.308868 -0.67223,-0.472292 -0.180891,-0.163424 -0.44267,-0.476099 -0.581732,-0.694833 -0.139061,-0.218734 -0.33601,-0.645348 -0.437664,-0.948031 -0.131743,-0.392278 -0.197586,-0.842127 -0.229257,-1.566333 -0.03409,-0.779416 -0.01209,-1.14415 0.09446,-1.566334 0.07639,-0.302683 0.253472,-0.785474 0.393513,-1.07287 0.160198,-0.32876 0.423972,-0.677313 0.711289,-0.939905 0.251168,-0.229554 0.638339,-0.502765 0.860383,-0.607137 0.222042,-0.104373 0.669994,-0.24529 0.995448,-0.313148 0.463785,-0.0967 0.715406,-0.104193 1.163677,-0.03464 0.314567,0.04881 0.679371,0.129344 0.810674,0.17897 0.131303,0.04963 0.4254,0.209718 0.653547,0.355756 0.228147,0.146039 0.579988,0.489899 0.781868,0.764134 0.23147,0.31443 0.445185,0.745937 0.578569,1.168171 0.137794,0.436196 0.219398,0.913092 0.234132,1.368283 l 0.02262,0.698721 -2.947189,0.02227 -2.947188,0.02227 0.05401,0.401064 c 0.0297,0.220584 0.106632,0.591563 0.17095,0.824397 0.06432,0.232833 0.229817,0.60097 0.367778,0.81808 0.150147,0.236291 0.408954,0.487411 0.64474,0.625592 0.286813,0.168083 0.547559,0.241719 0.95907,0.270846 0.310841,0.022 0.730471,-0.0047 0.932513,-0.05938 0.236111,-0.06388 0.497764,-0.229797 0.732396,-0.464428 l 0.365047,-0.365047 0.643437,0.128032 c 0.353891,0.07042 0.643438,0.158696 0.643438,0.196175 0,0.03748 -0.205553,0.290165 -0.456786,0.561525 -0.251231,0.27136 -0.623072,0.576431 -0.826312,0.677934 -0.20324,0.101503 -0.596241,0.243602 -0.873336,0.315776 -0.277095,0.07217 -0.733929,0.128052 -1.015187,0.124172 z M 78.68875,79.621567 h 2.153625 l -0.07431,-0.47386 c -0.04087,-0.260623 -0.153701,-0.632098 -0.250737,-0.8255 -0.09704,-0.193402 -0.257854,-0.441072 -0.357374,-0.550379 -0.09952,-0.109307 -0.333345,-0.278445 -0.519612,-0.375863 -0.247819,-0.12961 -0.498397,-0.17787 -0.934123,-0.179909 -0.498601,-0.0023 -0.659518,0.03476 -0.9893,0.228024 -0.216615,0.126944 -0.473935,0.343285 -0.571824,0.480756 -0.09789,0.137473 -0.248989,0.41355 -0.335779,0.613507 -0.08679,0.199957 -0.183988,0.525483 -0.215995,0.723391 l -0.0582,0.359833 z m 15.709212,5.157571 c -0.246924,-0.0039 -0.658503,-0.05262 -0.91462,-0.108255 -0.256116,-0.05564 -0.656166,-0.19369 -0.889,-0.306784 -0.232833,-0.113092 -0.597083,-0.379189 -0.809445,-0.591325 -0.212362,-0.212136 -0.490839,-0.599755 -0.618838,-0.861376 -0.127999,-0.261621 -0.288293,-0.680234 -0.356207,-0.930252 -0.06792,-0.250018 -0.145723,-0.816529 -0.172908,-1.258912 -0.03539,-0.575931 -0.01144,-0.98239 0.08435,-1.43137 0.07358,-0.344869 0.246722,-0.868392 0.384765,-1.163383 0.144231,-0.308215 0.433432,-0.718791 0.679918,-0.965279 0.245504,-0.245503 0.654888,-0.534174 0.957315,-0.675035 0.290611,-0.135358 0.797937,-0.28749 1.127392,-0.338073 0.4806,-0.07379 0.719522,-0.06684 1.208671,0.03515 0.335316,0.06991 0.80065,0.231066 1.034077,0.358113 0.233427,0.127046 0.578607,0.398274 0.767065,0.602728 0.188459,0.204454 0.454391,0.610514 0.59096,0.902354 0.136569,0.291842 0.304101,0.793985 0.372293,1.115874 0.06819,0.321889 0.124647,0.804328 0.125456,1.072087 l 0.0015,0.486833 h -2.920999 -2.921 v 0.372081 c 0,0.204645 0.07953,0.629556 0.176723,0.944245 0.142369,0.460938 0.261695,0.65662 0.613833,1.006621 0.276018,0.274343 0.565543,0.472403 0.7856,0.537421 0.191669,0.05663 0.572669,0.102129 0.846667,0.101106 0.30362,-0.0011 0.630439,-0.06323 0.836843,-0.158995 0.186267,-0.08642 0.464244,-0.289234 0.617726,-0.450687 l 0.27906,-0.293553 0.631107,0.125578 c 0.347109,0.06907 0.631107,0.150909 0.631107,0.181868 0,0.03096 -0.116221,0.214326 -0.25827,0.407481 -0.142048,0.193155 -0.484596,0.502327 -0.761219,0.687049 -0.330702,0.220834 -0.704665,0.381736 -1.091944,0.469821 -0.323947,0.07368 -0.791023,0.130771 -1.037947,0.126868 z m -0.110286,-5.157571 c 1.308375,0 2.158999,-0.03172 2.158999,-0.0805 0,-0.04427 -0.04279,-0.2824 -0.0951,-0.529167 -0.0523,-0.246767 -0.163115,-0.582017 -0.246245,-0.745 -0.08313,-0.162984 -0.259413,-0.396759 -0.391736,-0.519501 -0.132323,-0.122743 -0.355389,-0.28098 -0.495702,-0.351639 -0.140314,-0.07066 -0.428773,-0.154512 -0.641021,-0.186341 -0.222467,-0.03336 -0.544715,-0.01607 -0.760884,0.04084 -0.206239,0.05429 -0.499946,0.181416 -0.652682,0.282509 -0.152736,0.101092 -0.388963,0.35563 -0.524947,0.565641 -0.135985,0.21001 -0.306295,0.60854 -0.378465,0.885621 -0.07217,0.277081 -0.131219,0.53388 -0.131219,0.570663 0,0.03678 0.97155,0.06688 2.159,0.06688 z m 8.212664,5.156362 c -0.2794,-0.0032 -0.72621,-0.0587 -0.99291,-0.12335 -0.26671,-0.06465 -0.68126,-0.217042 -0.92123,-0.338646 -0.23998,-0.121605 -0.618372,-0.403149 -0.840878,-0.625656 -0.222506,-0.222505 -0.488925,-0.569933 -0.592043,-0.77206 -0.103117,-0.202127 -0.261739,-0.578887 -0.352494,-0.837244 -0.09636,-0.274328 -0.183567,-0.804341 -0.209624,-1.274072 -0.03124,-0.563138 -0.0044,-0.994752 0.0896,-1.439334 0.07382,-0.34925 0.268199,-0.907211 0.43195,-1.239914 0.207431,-0.421451 0.450845,-0.746674 0.802584,-1.072321 0.327355,-0.303068 0.677055,-0.532328 0.994615,-0.65205 0.26937,-0.101554 0.72795,-0.218937 1.01907,-0.260853 0.32415,-0.04667 0.7515,-0.0447 1.10258,0.0051 0.31531,0.04472 0.74387,0.140868 0.95237,0.213666 0.20849,0.0728 0.56958,0.263445 0.80241,0.42366 0.23283,0.160215 0.53009,0.42631 0.66056,0.591322 0.13047,0.165012 0.21819,0.330823 0.19492,0.368467 -0.0233,0.03764 -0.31761,0.179276 -0.65409,0.314735 -0.50717,0.204168 -0.61869,0.224875 -0.65208,0.121075 -0.0221,-0.06887 -0.19664,-0.282754 -0.38774,-0.475301 -0.20509,-0.206635 -0.48612,-0.38858 -0.68585,-0.444027 -0.18611,-0.05167 -0.52888,-0.09394 -0.76172,-0.09394 -0.23283,0 -0.5689,0.04042 -0.74682,0.08983 -0.17793,0.04941 -0.47596,0.22757 -0.6623,0.39592 -0.18635,0.16835 -0.41733,0.460005 -0.5133,0.648121 -0.096,0.188118 -0.20905,0.457417 -0.2513,0.598443 -0.0422,0.141026 -0.11041,0.54216 -0.15149,0.89141 -0.0433,0.368326 -0.0431,0.913617 5e-4,1.298436 0.0445,0.392099 0.16487,0.859573 0.29438,1.143 0.12052,0.263761 0.34089,0.606728 0.48971,0.76215 0.14882,0.155422 0.41832,0.358702 0.59888,0.451732 0.18057,0.09303 0.52854,0.189812 0.77326,0.21507 0.24472,0.02526 0.6473,-0.0026 0.89461,-0.06195 0.35232,-0.08452 0.54046,-0.198668 0.86908,-0.527293 l 0.41942,-0.419422 0.58017,0.22762 c 0.31909,0.12519 0.58016,0.264837 0.58016,0.310326 0,0.04549 -0.2029,0.285602 -0.45088,0.533587 -0.24799,0.247985 -0.60874,0.531413 -0.80167,0.629839 -0.19293,0.09843 -0.59011,0.235383 -0.88262,0.304346 -0.29251,0.06896 -0.76043,0.122777 -1.03983,0.119585 z m 6.60359,-0.0434 c -0.28612,0.02597 -0.71077,-6.77e-4 -0.97326,-0.06111 -0.25611,-0.05895 -0.61438,-0.179097 -0.79615,-0.266995 -0.18177,-0.0879 -0.4624,-0.291724 -0.62362,-0.452944 -0.16122,-0.161221 -0.36409,-0.449381 -0.45082,-0.640356 -0.10145,-0.223401 -0.15835,-0.545107 -0.15955,-0.902105 -0.001,-0.429187 0.0476,-0.654084 0.21639,-0.992846 0.12004,-0.240884 0.33502,-0.536225 0.47774,-0.656313 0.14272,-0.12009 0.44819,-0.313966 0.67882,-0.430837 0.23064,-0.116871 0.74908,-0.282573 1.1521,-0.368228 0.40302,-0.08565 0.99946,-0.179134 1.32543,-0.207732 0.32596,-0.0286 0.81681,-0.07466 1.09076,-0.10237 l 0.4981,-0.05037 -0.0554,-0.596076 c -0.0305,-0.327843 -0.12599,-0.755649 -0.21226,-0.950682 -0.0863,-0.195032 -0.27031,-0.435391 -0.40898,-0.534131 -0.13867,-0.09874 -0.43661,-0.220873 -0.6621,-0.271405 -0.22549,-0.05053 -0.61321,-0.06648 -0.86162,-0.03545 -0.2484,0.03104 -0.57438,0.138808 -0.7244,0.239495 -0.15002,0.100686 -0.34636,0.319329 -0.4363,0.485874 l -0.16354,0.302809 -0.61963,-0.252368 c -0.3408,-0.138802 -0.61963,-0.3007 -0.61963,-0.359772 0,-0.05907 0.17325,-0.300108 0.38501,-0.535632 0.2144,-0.23846 0.58021,-0.522617 0.8255,-0.641227 0.24227,-0.117151 0.702,-0.253845 1.02163,-0.303763 0.40199,-0.06278 0.77124,-0.06432 1.19782,-0.005 0.33917,0.04717 0.83741,0.168357 1.10719,0.269295 0.319,0.119356 0.6263,0.319893 0.87889,0.573559 0.25902,0.260124 0.44135,0.545139 0.54739,0.855703 0.1374,0.402403 0.16741,0.856752 0.22089,3.344333 0.034,1.583267 0.10162,3.002492 0.1502,3.153834 l 0.0883,0.275166 h -0.74935 -0.74935 l -0.0588,-0.548873 -0.0588,-0.548872 -0.26546,0.214966 c -0.146,0.118232 -0.3853,0.309558 -0.53177,0.425169 -0.14647,0.115612 -0.4705,0.281971 -0.72007,0.369687 -0.24957,0.08772 -0.68218,0.180216 -0.96136,0.205556 z m 0.29674,-1.188921 c 0.25612,-0.02476 0.6483,-0.123105 0.87152,-0.218543 0.22602,-0.09664 0.53637,-0.326001 0.70041,-0.517648 0.16201,-0.189268 0.35085,-0.533678 0.41965,-0.765356 0.0688,-0.231677 0.12509,-0.661967 0.12509,-0.956198 0,-0.294232 -0.0356,-0.534966 -0.079,-0.534966 -0.0435,0 -0.60544,0.09671 -1.24883,0.214923 -0.73467,0.134979 -1.36403,0.305318 -1.69195,0.457934 -0.29943,0.139353 -0.58835,0.344038 -0.67734,0.479853 -0.10033,0.153136 -0.15518,0.392847 -0.15518,0.678245 0,0.354048 0.0419,0.48618 0.21166,0.667665 0.11642,0.124444 0.28787,0.267479 0.381,0.317856 0.0931,0.05038 0.28364,0.120769 0.42334,0.156425 0.1397,0.03566 0.46355,0.04457 0.71966,0.01981 z m -57.309607,1.111187 c -0.401162,0.02003 -0.805585,0.01549 -0.898718,-0.01009 -0.09313,-0.02558 -0.290214,-0.102851 -0.437958,-0.171705 -0.149889,-0.06985 -0.327651,-0.24958 -0.402166,-0.406609 -0.114053,-0.24035 -0.133543,-0.733642 -0.133543,-3.380124 v -3.098705 h -0.681201 -0.681202 l 0.02504,-0.5715 0.02504,-0.5715 0.656167,-0.02473 0.656166,-0.02473 10e-4,-0.991271 0.001,-0.991273 0.570457,-0.229079 c 0.313752,-0.125993 0.637132,-0.253895 0.718624,-0.284225 0.137005,-0.05099 0.148166,0.0412 0.148166,1.223913 l 4e-6,1.279058 h 0.719666 0.719667 v 0.592667 0.592666 H 52.374401 51.65153 l 0.02437,2.874534 c 0.01803,2.126351 0.05134,2.901477 0.127994,2.978055 0.05699,0.05694 0.228441,0.105873 0.381,0.108745 0.152557,0.0029 0.420252,-0.02453 0.594877,-0.06089 l 0.3175,-0.06611 v 0.545112 c 0,0.426473 -0.03013,0.556674 -0.138449,0.598238 -0.07615,0.02922 -0.466671,0.06952 -0.867833,0.08956 z m -19.307771,-0.05775 c -0.72854,0.02262 -0.784073,0.01294 -0.729093,-0.127 0.03273,-0.08331 0.917641,-2.399381 1.966463,-5.146814 1.048822,-2.747433 1.945296,-5.101482 1.992163,-5.23122 l 0.08521,-0.235887 0.771098,0.02422 0.771098,0.02422 1.887172,5.164667 c 1.037946,2.840567 1.910076,5.250392 1.938068,5.355167 0.05001,0.187186 0.03768,0.1905 -0.709054,0.1905 h -0.759948 l -0.580351,-1.651 -0.580353,-1.651 h -2.03571 -2.035715 l -0.596221,1.629833 -0.59622,1.629833 z m 4.006662,-4.469481 c 0.866466,0 1.575392,-0.02693 1.575392,-0.05984 0,-0.03291 -0.329623,-1.004464 -0.732495,-2.159 -0.402873,-1.154537 -0.755298,-2.09894 -0.783167,-2.098676 -0.02787,2.54e-4 -0.389415,0.92419 -0.803435,2.053167 -0.414019,1.128977 -0.77052,2.100311 -0.792225,2.158519 -0.03068,0.08229 0.311015,0.105833 1.53593,0.105833 z m 18.254724,4.487334 h -0.677333 v -4.106334 -4.106333 h 0.673909 0.673909 l 0.02459,0.678168 0.02459,0.678168 0.297511,-0.402554 c 0.211285,-0.285885 0.458157,-0.484339 0.851802,-0.684743 0.376594,-0.191724 0.722287,-0.297423 1.078322,-0.329707 l 0.524031,-0.04752 v 0.719205 0.719205 l -0.638358,0.04828 c -0.489473,0.03702 -0.741245,0.10614 -1.0795,0.296368 -0.288376,0.162177 -0.520593,0.376919 -0.670573,0.620108 -0.13471,0.218429 -0.265527,0.599226 -0.316861,0.922352 -0.04809,0.302684 -0.08772,1.550459 -0.08807,2.772834 l -6.4e-4,2.2225 z m 15.582227,0 h -3.982894 v -0.71821 -0.71821 l 3.005666,-3.94288 c 1.653117,-2.168583 3.005667,-3.959939 3.005667,-3.98079 0,-0.02085 -1.35255,-0.03791 -3.005667,-0.03791 h -3.005666 v -0.677334 -0.677333 h 3.894666 3.894666 v 0.64903 0.649031 l -3.005666,4.007209 c -1.653117,2.203965 -3.005666,4.025976 -3.005666,4.048913 0,0.02294 1.381124,0.0517 3.069166,0.06393 l 3.069166,0.02222 0.02473,0.656167 0.02473,0.656167 z m 13.198286,0 H 83.15401 v -4.106334 -4.106333 h 0.677333 0.677333 v 0.57912 0.57912 l 0.486833,-0.482768 c 0.350087,-0.347163 0.629526,-0.535896 0.994834,-0.671908 0.419231,-0.15609 0.634952,-0.183285 1.234511,-0.155629 0.576018,0.02657 0.825314,0.08185 1.203489,0.266876 0.264698,0.129505 0.626212,0.402903 0.812297,0.614306 0.184425,0.209519 0.403008,0.559804 0.48574,0.778413 0.131989,0.348765 0.154199,0.783937 0.181248,3.551303 l 0.03083,3.153834 h -0.725223 -0.725223 v -2.924373 c 0,-2.702558 -0.01216,-2.9482 -0.160324,-3.2385 -0.08818,-0.17277 -0.232447,-0.379349 -0.320598,-0.459065 -0.08815,-0.07972 -0.311281,-0.208178 -0.495843,-0.285473 -0.186332,-0.07803 -0.561489,-0.140535 -0.843568,-0.140535 -0.283384,0 -0.657744,0.06261 -0.846667,0.141598 -0.186266,0.07788 -0.46583,0.263491 -0.621252,0.412472 -0.155422,0.148982 -0.364972,0.423276 -0.465667,0.609542 -0.175231,0.324147 -0.184251,0.457554 -0.210399,3.1115 l -0.02732,2.772834 z m 37.630489,-6.524393 c -0.0411,-0.0028 -0.49377,-0.234433 -1.00601,-0.514777 -0.51223,-0.280344 -2.50234,-1.310565 -4.42247,-2.289378 -2.61125,-1.331129 -3.55549,-1.852962 -3.7465,-2.070502 -0.18676,-0.212714 -0.25536,-0.375982 -0.25536,-0.607785 0,-0.188603 0.12121,-0.569873 0.29935,-0.94157 0.16464,-0.343546 0.58926,-1.04732 0.9436,-1.563945 0.35434,-0.516624 1.00988,-1.396517 1.45674,-1.955317 0.44687,-0.5588 1.38335,-1.68275 2.08107,-2.497666 0.69773,-0.814917 1.76486,-1.981017 2.37141,-2.591333 0.60656,-0.610317 1.35048,-1.29066 1.65316,-1.511875 0.30269,-0.221215 0.74084,-0.500792 0.97367,-0.621282 0.3119,-0.161403 0.55706,-0.220314 0.93133,-0.223791 0.33782,-0.0031 0.61707,0.04943 0.83359,0.156933 0.20008,0.09934 0.43509,0.327795 0.60966,0.592667 0.15623,0.237057 0.3777,0.756575 0.49213,1.154482 0.11444,0.397908 0.26855,1.198008 0.34247,1.778 0.0739,0.579993 0.17214,1.816532 0.21828,2.747865 0.0461,0.931334 0.0844,1.80255 0.085,1.936037 0.001,0.208051 -0.026,0.236642 -0.18933,0.200246 -0.10478,-0.02335 -0.68258,-0.180138 -1.28399,-0.348416 -0.60142,-0.168276 -1.10437,-0.316834 -1.11766,-0.330128 -0.0133,-0.01329 -0.10383,-0.727723 -0.20118,-1.587621 -0.0974,-0.859898 -0.21482,-1.705678 -0.26105,-1.879511 -0.0462,-0.173833 -0.15894,-0.356149 -0.2505,-0.405146 -0.11875,-0.06356 -0.22104,-0.06088 -0.35696,0.0093 -0.10477,0.05413 -0.85725,0.756176 -1.67216,1.560102 l -1.48167,1.461684 -0.48256,0.0571 c -0.27627,0.03269 -0.60149,0.137249 -0.76077,0.244585 -0.15301,0.103115 -0.32799,0.281589 -0.38885,0.396608 -0.0641,0.121212 -0.0965,0.378572 -0.0771,0.612199 l 0.0336,0.403075 -1.554,1.509362 c -1.11876,1.086635 -1.55399,1.563362 -1.55399,1.702173 0,0.113084 0.12552,0.307783 0.30356,0.470859 0.16696,0.152926 0.99,0.668698 1.82898,1.146158 0.83898,0.477461 2.59055,1.44837 3.89239,2.157576 l 2.36696,1.289465 -0.2901,0.179296 c -0.15956,0.09861 -0.32371,0.177019 -0.36478,0.174236 z"
         id="path934"
         sodipodi:nodetypes="sssssssssssssssssscssssssccsccsssssssssscssssssssscsssssssssssscsssssssssssssssssscsscssssssssssssssssssscsscsssssssssssssssscsssscsssssscsssssssscssssscssssscccsssssscccsssscssssssssccsssssssssssssssssscccssssssscsssssssccsssscssssccsssssssssssssssssscccsssscsscssssssssssssssssssssscssssssssssssssssscsssssscscsssssscssssscccsssscssssssccsssssscssssssssscscccccssscccsssssssssssscccsssscccccccccssscccccccsscscssccsssscccssscccccccsssssssssccccccccssscccsssssccccccssscccccccsssccccccccccccssssssscccssssssssscccssssssssssscssssccssscsssscsssccssssscscc" />
    </g>
  </g>
</svg>
