<?xml version="1.0" encoding="UTF-8" standalone="no"?>
<svg
   width="300"
   height="67.510345"
   viewBox="-2.4 -2.4 482.21739 110.81886"
   version="1.1"
   id="svg30"
   sodipodi:docname="moderna.svg"
   inkscape:version="1.1.2 (0a00cf5339, 2022-02-04)"
   xmlns:inkscape="http://www.inkscape.org/namespaces/inkscape"
   xmlns:sodipodi="http://sodipodi.sourceforge.net/DTD/sodipodi-0.dtd"
   xmlns="http://www.w3.org/2000/svg"
   xmlns:svg="http://www.w3.org/2000/svg">
  <defs
     id="defs34" />
  <sodipodi:namedview
     id="namedview32"
     pagecolor="#ffffff"
     bordercolor="#666666"
     borderopacity="1.0"
     inkscape:pageshadow="2"
     inkscape:pageopacity="0.0"
     inkscape:pagecheckerboard="0"
     showgrid="false"
     fit-margin-top="0"
     fit-margin-left="0"
     fit-margin-right="0"
     fit-margin-bottom="0"
     inkscape:zoom="4.1504094"
     inkscape:cx="64.812884"
     inkscape:cy="50.476949"
     inkscape:window-width="956"
     inkscape:window-height="1149"
     inkscape:window-x="0"
     inkscape:window-y="22"
     inkscape:window-maximized="0"
     inkscape:current-layer="svg30" />
  <g
     id="g963"
     transform="matrix(1.3451329,0,0,1.3465273,-6.7224477,-2.4)">
    <g
       stroke-width="4.6"
       stroke-linecap="round"
       id="g26"
       style="fill:#e7ebfc;fill-opacity:1;stroke:#e7ebfc;stroke-width:4.59951;stroke-miterlimit:4;stroke-dasharray:none;stroke-opacity:1">
      <path
         d="M 1,80 H 20"
         stroke="#a6dff9"
         id="path2"
         style="fill:#e7ebfc;fill-opacity:1;stroke:#e7ebfc;stroke-width:4.59951;stroke-miterlimit:4;stroke-dasharray:none;stroke-opacity:1" />
      <path
         d="M 31,80 H 50"
         stroke="#93daf8"
         id="path4"
         style="fill:#e7ebfc;fill-opacity:1;stroke:#e7ebfc;stroke-width:4.59951;stroke-miterlimit:4;stroke-dasharray:none;stroke-opacity:1" />
      <path
         d="M 61,80 H 80"
         stroke="#7ed4f7"
         id="path6"
         style="fill:#e7ebfc;fill-opacity:1;stroke:#e7ebfc;stroke-width:4.59951;stroke-miterlimit:4;stroke-dasharray:none;stroke-opacity:1" />
      <path
         d="m 91,80 h 19"
         stroke="#6bcff6"
         id="path8"
         style="fill:#e7ebfc;fill-opacity:1;stroke:#e7ebfc;stroke-width:4.59951;stroke-miterlimit:4;stroke-dasharray:none;stroke-opacity:1" />
      <path
         d="m 121,80 h 19"
         stroke="#52cbf5"
         id="path10"
         style="fill:#e7ebfc;fill-opacity:1;stroke:#e7ebfc;stroke-width:4.59951;stroke-miterlimit:4;stroke-dasharray:none;stroke-opacity:1" />
      <path
         d="m 151,80 h 19"
         stroke="#39c6f4"
         id="path12"
         style="fill:#e7ebfc;fill-opacity:1;stroke:#e7ebfc;stroke-width:4.59951;stroke-miterlimit:4;stroke-dasharray:none;stroke-opacity:1" />
      <path
         d="m 181,80 h 19"
         stroke="#20c2f3"
         id="path14"
         style="fill:#e7ebfc;fill-opacity:1;stroke:#e7ebfc;stroke-width:4.59951;stroke-miterlimit:4;stroke-dasharray:none;stroke-opacity:1" />
      <path
         d="m 211,80 h 19"
         stroke="#04bef2"
         id="path16"
         style="fill:#e7ebfc;fill-opacity:1;stroke:#e7ebfc;stroke-width:4.59951;stroke-miterlimit:4;stroke-dasharray:none;stroke-opacity:1" />
      <path
         d="m 241,80 h 19"
         stroke="#00baf2"
         id="path18"
         style="fill:#e7ebfc;fill-opacity:1;stroke:#e7ebfc;stroke-width:4.59951;stroke-miterlimit:4;stroke-dasharray:none;stroke-opacity:1" />
      <path
         d="m 271,80 h 19"
         stroke="#00b6f1"
         id="path20"
         style="fill:#e7ebfc;fill-opacity:1;stroke:#e7ebfc;stroke-width:4.59951;stroke-miterlimit:4;stroke-dasharray:none;stroke-opacity:1" />
      <path
         d="m 301,80 h 19"
         stroke="#00b3f0"
         id="path22"
         style="fill:#e7ebfc;fill-opacity:1;stroke:#e7ebfc;stroke-width:4.59951;stroke-miterlimit:4;stroke-dasharray:none;stroke-opacity:1" />
      <path
         d="m 331,80 h 19"
         stroke="#00afef"
         id="path24"
         style="fill:#e7ebfc;fill-opacity:1;stroke:#e7ebfc;stroke-width:4.59951;stroke-miterlimit:4;stroke-dasharray:none;stroke-opacity:1" />
    </g>
    <path
       d="m 165.2,0 v 24.5 a 20,20 0 0 0 -17,-9 c -6.2,0 -11.4,2.2 -15.8,6.6 A 22,22 0 0 0 126,38 c 0,6.4 2.2,11.7 6.5,16.1 4.2,4.5 9.5,6.7 15.5,6.7 3.5,0 6.7,-0.8 9.6,-2.1 2.8,-1.5 5.4,-3.6 7.7,-6.4 v 7.4 h 5.5 V 0 Z m -145,15 c -3,0 -6,0.8 -8.8,2.5 A 21,21 0 0 0 5.5,23.6 V 16.1 H 0 V 59.7 H 5.5 V 41.2 C 5.5,35.7 6.1,31.7 7.1,29 A 14,14 0 0 1 12,22.7 c 2.2,-1.5 4.6,-2.3 7.1,-2.3 2.2,0 4.1,0.6 5.8,1.7 a 9.2,9.2 0 0 1 3.4,4.5 c 0.6,2 0.9,5.5 0.9,10.8 v 22.3 h 5.5 v -17 c 0,-6.3 0.5,-10.8 1.5,-13.5 1,-2.6 2.7,-4.8 4.9,-6.4 2.2,-1.6 4.6,-2.4 7.3,-2.4 2.2,0 4,0.5 5.6,1.6 1.6,1 2.7,2.5 3.4,4.2 0.7,1.8 1,5 1,9.7 V 59.7 H 64 V 36 C 64,30.6 63.5,26.4 62.4,23.7 A 13.5,13.5 0 0 0 49.4,15 c -3.1,0 -6,1 -8.8,2.7 -2.7,1.8 -5,4.4 -6.9,7.8 C 32.9,23 31.8,21 30.7,19.6 A 12,12 0 0 0 26.1,16.3 C 24.2,15.4 22.3,15 20.1,15 Z m 75.3,0 c -6.5,0 -11.9,2.4 -16,7.3 a 23,23 0 0 0 -6,15.7 c 0,6 2,11.4 6.2,16 4,4.5 9.3,6.8 15.7,6.8 a 20,20 0 0 0 15.7,-6.9 23,23 0 0 0 6.1,-15.9 c 0,-6 -1.9,-11.3 -5.8,-15.8 a 20.5,20.5 0 0 0 -16,-7.3 z M 203,15 c -7,0 -12.6,2.7 -16.9,8.2 -3.3,4.3 -4.9,9.2 -4.9,14.8 0,5.9 2,11.1 5.9,15.8 a 20,20 0 0 0 16.2,7 21.5,21.5 0 0 0 15,-5.8 c 2,-1.8 3.8,-4.3 5.2,-7.3 L 219,45.2 c -1.7,2.9 -3.2,5 -4.7,6.2 a 17.6,17.6 0 0 1 -11.5,4.2 c -4.4,0 -8.2,-1.6 -11.2,-4.8 -3.1,-3.3 -4.7,-7.4 -4.8,-12.5 H 225 c 0,-6 -1.6,-11 -4.7,-15 A 20.8,20.8 0 0 0 203,15 Z m 46.8,0 c -2.1,0 -4.1,0.6 -6,1.8 a 20,20 0 0 0 -5.6,5.7 V 16 h -5.8 v 43.6 h 5.8 V 45 c 0,-7.6 0.4,-12.7 1.1,-15.1 1,-3.3 2.3,-5.7 4,-7.2 a 8.2,8.2 0 0 1 5.6,-2.3 c 0.7,0 1.7,0.2 3,0.8 l 3,-4.8 c -1.9,-1 -3.5,-1.5 -5.1,-1.5 z m 33,0 c -3.2,0 -6.1,0.7 -8.8,2.2 a 23,23 0 0 0 -7.3,6.7 V 16 h -5.5 v 43.6 h 5.5 v -16 c 0,-5.7 0.3,-9.7 0.8,-11.9 0.8,-3.3 2.6,-6 5.2,-8.3 2.7,-2.3 5.7,-3.4 9,-3.4 3,0 5.3,0.8 7,2.2 a 11,11 0 0 1 3.7,6.5 c 0.5,1.7 0.7,5 0.7,10.1 v 20.8 h 5.5 V 37.3 c 0,-6 -0.6,-10.4 -1.8,-13.2 -1.2,-2.8 -3,-5 -5.5,-6.7 a 15,15 0 0 0 -8.5,-2.5 z m 47,0 c -5.9,0 -11,2.2 -15.2,6.6 a 22.6,22.6 0 0 0 -6.4,16.1 23,23 0 0 0 6.3,16.3 20.6,20.6 0 0 0 32,-1.9 v 7.6 h 5.4 V 16 h -5.3 v 8 A 21,21 0 0 0 339.2,17.1 19,19 0 0 0 330,15 Z M 203,20.3 c 2.6,0 5,0.6 7.2,1.7 2.4,1 4.2,2.5 5.6,4.3 1.3,1.8 2.4,4.1 3.2,7.1 h -31.7 c 1.2,-4 2.8,-7 5,-9 3,-2.7 6.6,-4 10.7,-4 z m 127.3,0 c 4.7,0 8.6,1.7 11.9,5.1 3.1,3.4 4.7,7.6 4.7,12.7 0,3.3 -0.7,6.3 -2,8.9 a 16.7,16.7 0 0 1 -14.5,8.6 c -3,0 -5.8,-0.8 -8.4,-2.3 a 18.5,18.5 0 0 1 -6.1,-24.1 16.2,16.2 0 0 1 14.4,-8.8 z m -235,0.2 c 4.5,0 8.4,1.7 11.6,5.1 A 18.6,18.6 0 0 1 109.6,46.9 15.8,15.8 0 0 1 95.4,55.5 15.8,15.8 0 0 1 81.2,46.9 18.6,18.6 0 0 1 79,38.1 c 0,-4.9 1.6,-9 4.8,-12.5 3.2,-3.4 7,-5.1 11.6,-5.1 z m 53.2,0.3 a 17,17 0 0 1 17,17.5 18,18 0 0 1 -2.2,8.9 17.7,17.7 0 0 1 -14.9,8.5 17,17 0 0 1 -14.7,-8.8 17.8,17.8 0 0 1 0,-17.4 16.7,16.7 0 0 1 14.8,-8.7 z M 360,19.5 h 0.8 c 0.4,0 0.7,0 0.8,-0.2 0.2,0 0.3,-0.2 0.3,-0.4 l -0.2,-0.3 c 0,-0.2 0,-0.2 -0.2,-0.3 H 360 Z m -0.6,2.3 v -4 h 2.4 c 0.3,0.1 0.5,0.3 0.6,0.5 l 0.2,0.5 c 0,0.4 -0.2,0.6 -0.3,0.8 a 2,2 0 0 1 -1,0.4 l 0.4,0.2 0.6,0.8 0.5,0.8 H 362 l -0.3,-0.7 -0.7,-1 h -0.9 v 1.7 z m 1.6,-5.3 c -0.5,0 -1,0.1 -1.5,0.5 -0.5,0.2 -0.9,0.6 -1.1,1.1 a 3,3 0 0 0 0,3.2 c 0.2,0.5 0.6,0.9 1.1,1.1 0.5,0.4 1,0.5 1.5,0.5 0.6,0 1.1,-0.1 1.6,-0.5 0.5,-0.2 1,-0.6 1.2,-1.1 0.2,-0.5 0.4,-1 0.4,-1.6 0,-0.5 -0.2,-1 -0.4,-1.6 A 3,3 0 0 0 362.6,17 c -0.5,-0.4 -1,-0.5 -1.6,-0.5 z m 0,-0.5 c 0.7,0 1.3,0.1 1.9,0.4 0.6,0.3 1,0.8 1.4,1.4 0.4,0.6 0.5,1.2 0.5,2 0,0.6 -0.1,1.2 -0.5,1.8 -0.3,0.6 -0.8,1 -1.4,1.4 a 4,4 0 0 1 -1.9,0.5 c -0.6,0 -1.2,-0.2 -1.8,-0.5 -0.6,-0.3 -1,-0.8 -1.4,-1.4 -0.3,-0.6 -0.5,-1.2 -0.5,-1.9 0,-0.7 0.2,-1.3 0.5,-1.9 0.4,-0.6 0.8,-1 1.4,-1.4 0.6,-0.3 1.3,-0.4 1.8,-0.4 z"
       fill="#e51937"
       id="path28"
       style="fill:#e7ebfc;fill-opacity:1" />
  </g>
</svg>
